<svg xmlns="http://www.w3.org/2000/svg" viewBox="0 0 720 900" role="img" aria-labelledby="title desc">
  <title id="title">Livehouse study illustration</title>
  <desc id="desc">A quiet music club inspired study scene with a guitar, soft lights, and vocabulary cards.</desc>
  <defs>
    <linearGradient id="wall" x1="0" x2="1" y1="0" y2="1">
      <stop offset="0" stop-color="#26212a"/>
      <stop offset=".48" stop-color="#18161b"/>
      <stop offset="1" stop-color="#111014"/>
    </linearGradient>
    <linearGradient id="pink" x1="0" x2="1" y1="0" y2="1">
      <stop offset="0" stop-color="#ffb4cd"/>
      <stop offset="1" stop-color="#df5f86"/>
    </linearGradient>
    <linearGradient id="yellow" x1="0" x2="1" y1="0" y2="1">
      <stop offset="0" stop-color="#ffe08a"/>
      <stop offset="1" stop-color="#f3b44d"/>
    </linearGradient>
    <filter id="soft" x="-20%" y="-20%" width="140%" height="140%">
      <feGaussianBlur stdDeviation="18"/>
    </filter>
  </defs>

  <rect width="720" height="900" fill="url(#wall)"/>
  <circle cx="585" cy="132" r="142" fill="#f49ab6" opacity=".22" filter="url(#soft)"/>
  <circle cx="92" cy="392" r="170" fill="#59b8c6" opacity=".18" filter="url(#soft)"/>
  <circle cx="426" cy="740" r="180" fill="#f3c760" opacity=".18" filter="url(#soft)"/>

  <path d="M58 202h604" stroke="#fff" stroke-opacity=".08" stroke-width="2"/>
  <path d="M58 492h604" stroke="#fff" stroke-opacity=".07" stroke-width="2"/>
  <path d="M134 0v900M324 0v900M514 0v900" stroke="#fff" stroke-opacity=".045" stroke-width="2"/>

  <g opacity=".9">
    <rect x="80" y="108" width="138" height="94" rx="8" fill="#f8f4ed"/>
    <rect x="99" y="130" width="72" height="9" rx="4" fill="#18161b" opacity=".86"/>
    <rect x="99" y="153" width="88" height="7" rx="3" fill="#df5f86" opacity=".74"/>
    <rect x="99" y="174" width="54" height="7" rx="3" fill="#18161b" opacity=".18"/>

    <rect x="248" y="88" width="190" height="128" rx="8" fill="#2e2932" stroke="#fff" stroke-opacity=".12"/>
    <circle cx="296" cy="151" r="30" fill="url(#pink)"/>
    <rect x="348" y="124" width="54" height="8" rx="4" fill="#f8f4ed" opacity=".88"/>
    <rect x="348" y="147" width="70" height="7" rx="3" fill="#f8f4ed" opacity=".34"/>
    <rect x="348" y="170" width="44" height="7" rx="3" fill="#f8f4ed" opacity=".2"/>

    <rect x="468" y="116" width="136" height="96" rx="8" fill="url(#yellow)"/>
    <path d="M498 172c32-34 46-34 78 0" fill="none" stroke="#18161b" stroke-width="7" stroke-linecap="round"/>
  </g>

  <g transform="translate(116 294)">
    <path d="M92 410c0-92 35-159 98-201 51-34 65-82 51-142l75-24c23 73 4 147-58 209 63 1 121 28 169 80l-54 60c-46-46-97-64-153-54-58 11-92 36-102 75z" fill="#f7a5c0"/>
    <path d="M118 428c-6-56 11-101 52-136 30-26 44-56 43-92l60-17c12 55-5 102-52 141 56-8 107 9 151 50l-36 52c-44-35-90-46-138-33-35 9-61 24-80 35z" fill="#18161b" opacity=".24"/>

    <g transform="rotate(-22 258 296)">
      <rect x="248" y="104" width="24" height="322" rx="12" fill="#e6d6b8"/>
      <rect x="236" y="80" width="48" height="66" rx="12" fill="#232026"/>
      <circle cx="260" cy="397" r="96" fill="#f3c760"/>
      <circle cx="260" cy="397" r="43" fill="#18161b"/>
      <circle cx="260" cy="397" r="24" fill="#f8f4ed" opacity=".16"/>
      <path d="M260 120v330" stroke="#18161b" stroke-opacity=".52" stroke-width="3"/>
      <path d="M248 120v330M272 120v330" stroke="#18161b" stroke-opacity=".28" stroke-width="2"/>
    </g>

    <ellipse cx="267" cy="570" rx="224" ry="34" fill="#050506" opacity=".35"/>
    <rect x="76" y="438" width="378" height="86" rx="8" fill="#f8f4ed"/>
    <rect x="108" y="464" width="92" height="12" rx="6" fill="#18161b" opacity=".76"/>
    <rect x="108" y="492" width="146" height="9" rx="4" fill="#df5f86" opacity=".65"/>
    <rect x="294" y="462" width="110" height="14" rx="7" fill="#18161b" opacity=".16"/>
    <rect x="294" y="490" width="78" height="9" rx="4" fill="#18161b" opacity=".14"/>
  </g>

  <g opacity=".72">
    <circle cx="586" cy="330" r="9" fill="#f8f4ed"/>
    <circle cx="616" cy="362" r="5" fill="#f3c760"/>
    <circle cx="102" cy="660" r="7" fill="#59b8c6"/>
    <circle cx="526" cy="724" r="6" fill="#f49ab6"/>
  </g>
</svg>
